<svg xmlns="http://www.w3.org/2000/svg" fill="currentColor" viewBox="0 0 24 24"><path d="M19.695 4.04S15.348 3.2 12 3.2s-7.695.84-7.695.84L1.602 7.2v9.6l2.703 3.16s4.347.84 7.695.84 7.695-.84 7.695-.84l2.703-3.16V12 7.2zM9.602 15.68V8.32L16 12zm0 0" /><path d="M19.2 4a3.198 3.198 0 1 0 0 6.398c1.769 0 3.198-1.43 3.198-3.199C22.398 5.434 20.968 4 19.2 4zm0 9.602a3.198 3.198 0 1 0 0 6.398c1.769 0 3.198-1.434 3.198-3.2 0-1.769-1.43-3.198-3.199-3.198zM1.601 7.199c0 1.77 1.43 3.2 3.199 3.2 1.765 0 2.398-1.43 2.398-3.2C7.2 5.434 6.566 4 4.801 4 3.03 4 1.6 5.434 1.6 7.2zM4.8 13.602c-1.77 0-3.2 1.43-3.2 3.199A3.198 3.198 0 1 0 8 16.8c0-1.77-1.434-3.2-3.2-3.2zm0 0" /></svg>